# xmcd
#
# Track frame offsets:
#	150
#	14849
#	32833
#	49834
#	69887
#	88573
#	107425
#	125755
#	142670
#	158175
#	180431
#
# Disc length: 2650 seconds
#
# Revision: 1
# Processed by: cddbd v1.5.2PL0 Copyright (c) Steve Scherf et al.
# Submitted via: audiograbber 1.83.01
#
DISCID=890a580b
DTITLE=Fosterchild - Independence Day
DYEAR=2007
DGENRE=Rock
TTITLE0=Let Me Down
TTITLE1=Hole
TTITLE2=Rattlesnake
TTITLE3=Crucified
TTITLE4=Don't Let Go
TTITLE5=Trigger
TTITLE6=Independence Day
TTITLE7=On My Own
TTITLE8=Sugar Cookie
TTITLE9=Bulletproof
TTITLE10=Mission
EXTD=
EXTT0=
EXTT1=
EXTT2=
EXTT3=
EXTT4=
EXTT5=
EXTT6=
EXTT7=
EXTT8=
EXTT9=
EXTT10=
PLAYORDER=
